<?xml version="1.0" standalone="no"?>
<!DOCTYPE svg PUBLIC "-//W3C//DTD SVG 20010904//EN"
 "http://www.w3.org/TR/2001/REC-SVG-20010904/DTD/svg10.dtd">
<svg version="1.0" xmlns="http://www.w3.org/2000/svg"
 width="292.000000pt" height="292.000000pt" viewBox="0 0 292.000000 292.000000"
 preserveAspectRatio="xMidYMid meet">
<metadata>
Created by potrace 1.14, written by Peter Selinger 2001-2017
</metadata>
<g transform="translate(0.000000,292.000000) scale(0.100000,-0.100000)"
fill="#000000" stroke="none">
<path d="M1297 2695 c-320 -81 -538 -369 -522 -690 5 -96 9 -119 37 -198 63
-182 227 -348 408 -412 167 -60 371 -50 522 25 194 96 315 246 369 454 28 107
21 266 -15 371 -71 206 -219 355 -426 430 -62 23 -95 28 -195 31 -83 3 -138
-1 -178 -11z m318 -47 c204 -57 366 -206 440 -408 25 -66 28 -89 29 -200 1
-135 -16 -211 -71 -309 -131 -237 -389 -367 -653 -328 -68 10 -80 13 -147 40
-425 172 -534 721 -208 1042 92 90 204 149 330 175 70 14 205 8 280 -12z"/>
<path d="M1316 2614 c-264 -64 -456 -301 -458 -569 -3 -291 185 -531 469 -596
68 -15 197 -13 268 6 151 39 296 147 374 278 123 209 98 501 -60 682 -119 136
-261 204 -439 210 -59 2 -118 -2 -154 -11z m305 -53 c163 -51 308 -195 360
-360 23 -74 32 -207 18 -274 -66 -302 -354 -495 -655 -438 -179 34 -340 169
-408 341 -22 54 -45 181 -41 218 5 37 18 124 21 141 2 8 19 49 40 90 70 144
219 261 377 297 80 18 202 11 288 -15z"/>
<path d="M1319 2529 c-173 -48 -313 -186 -363 -358 -9 -30 -16 -91 -16 -136 0
-176 83 -332 230 -432 146 -98 350 -109 519 -26 70 34 181 143 216 213 84 165
80 353 -11 507 -32 56 -110 135 -171 173 -109 69 -278 94 -404 59z m280 -49
c148 -50 251 -153 301 -300 87 -259 -64 -534 -334 -606 -73 -19 -208 -12 -279
16 -133 51 -246 174 -288 311 -17 57 -20 87 -16 152 8 120 23 164 88 257 115
165 335 235 528 170z"/>
<path d="M1380 2458 c-126 -19 -260 -118 -314 -232 -134 -284 53 -607 361
-621 342 -16 563 332 402 634 -17 33 -50 79 -73 101 -44 44 -162 108 -212 115
-70 10 -112 11 -164 3z m185 -53 c88 -25 166 -84 217 -164 167 -264 -35 -610
-348 -596 -80 4 -137 22 -197 64 -159 111 -219 310 -143 477 54 117 145 195
265 225 71 18 129 16 206 -6z"/>
<path d="M1400 2378 c-116 -18 -216 -95 -268 -206 -51 -110 -31 -258 45 -353
216 -267 639 -107 621 234 -8 158 -135 305 -281 323 -23 3 -46 6 -52 8 -5 1
-35 -1 -65 -6z m183 -68 c59 -28 119 -88 149 -149 18 -36 23 -63 23 -126 0
-101 -26 -161 -96 -227 -163 -152 -430 -82 -501 132 -18 56 -16 153 6 205 34
80 112 153 196 182 54 19 167 10 223 -17z"/>
<path d="M1380 2291 c-190 -58 -255 -285 -126 -438 75 -89 235 -112 336 -48
116 73 162 228 104 344 -55 111 -201 176 -314 142z m189 -68 c119 -74 143
-228 53 -334 -110 -128 -314 -96 -380 61 -50 118 19 260 146 301 48 15 131 2
181 -28z"/>
<path d="M1391 2208 c-75 -27 -121 -95 -121 -178 0 -110 88 -189 200 -178 183
18 228 260 65 346 -34 18 -109 23 -144 10z m138 -55 c67 -51 85 -128 43 -195
-75 -121 -262 -65 -262 78 0 108 134 180 219 117z"/>
<path d="M1403 2120 c-53 -32 -67 -83 -38 -139 45 -87 190 -48 187 50 -2 84
-81 131 -149 89z m104 -63 c18 -39 -15 -87 -61 -87 -24 0 -56 37 -56 64 0 14
11 33 25 45 21 16 31 18 54 10 16 -6 33 -20 38 -32z"/>
<path d="M149 939 c-96 -14 -139 -58 -139 -143 0 -92 88 -145 219 -132 67 7
113 29 134 65 9 16 17 32 17 35 0 13 -116 5 -134 -9 -24 -18 -76 -19 -99 -2
-27 20 -31 60 -9 88 24 30 66 35 100 13 22 -15 125 -24 137 -12 2 2 -1 15 -8
28 -26 51 -126 83 -218 69z"/>
<path d="M427 934 c-4 -4 -7 -65 -7 -135 l0 -128 28 -3 c15 -2 42 -1 59 1 29
3 32 6 29 28 -8 39 2 49 42 48 57 -2 79 -13 91 -45 10 -30 14 -32 71 -32 17 0
34 1 39 1 10 1 -6 70 -19 85 -5 5 -1 20 10 34 43 54 10 124 -65 140 -51 11
-268 15 -278 6z m226 -70 c9 -3 17 -14 17 -24 0 -21 -17 -26 -84 -25 -46 0
-49 2 -50 27 -2 27 0 28 49 27 27 0 58 -3 68 -5z"/>
<path d="M830 804 l0 -134 63 -1 c229 -3 251 -2 257 17 4 10 5 27 2 36 -4 16
-17 18 -106 18 -85 0 -103 3 -103 15 0 16 2 16 87 20 30 1 61 3 68 4 6 0 12
12 12 26 0 25 -1 25 -79 25 -44 0 -82 4 -85 8 -12 20 13 31 69 31 130 -2 125
-3 125 35 l0 35 -155 0 -155 0 0 -135z"/>
<path d="M1277 841 c-35 -53 -73 -113 -85 -133 l-23 -37 23 -3 c51 -7 100 4
105 23 5 17 15 19 90 19 77 0 87 -2 104 -23 15 -21 25 -23 66 -20 26 3 49 6
51 8 2 2 -34 62 -80 134 l-83 131 -53 -2 -53 -1 -62 -96z m150 -57 c-3 -3 -21
-4 -41 -2 l-35 3 21 33 21 34 20 -32 c11 -17 17 -33 14 -36z"/>
<path d="M1630 902 l0 -37 50 3 50 4 0 -100 0 -100 33 -4 c17 -2 43 -1 57 2
25 5 25 7 25 100 l0 95 53 3 c52 3 52 3 52 37 l0 35 -160 -1 -160 -1 0 -36z"/>
<path d="M1989 906 c-2 -99 1 -229 6 -234 6 -6 97 -3 104 3 3 4 5 180 2 247
-1 14 -11 17 -56 17 -55 -1 -55 -1 -56 -33z"/>
<path d="M2133 933 c2 -5 37 -65 76 -135 l72 -127 52 -3 52 -3 36 60 c19 33
54 95 78 138 l42 77 -59 0 -59 0 -41 -90 c-23 -49 -44 -90 -46 -90 -3 0 -24
41 -47 90 l-42 90 -59 0 c-33 0 -57 -3 -55 -7z"/>
<path d="M2569 928 c-4 -47 0 -250 4 -254 3 -3 74 -6 159 -6 l153 0 3 36 3 36
-105 0 c-88 0 -106 3 -106 15 0 17 0 16 85 20 33 1 66 3 73 4 6 0 12 12 12 26
0 25 -1 25 -85 25 -76 0 -85 2 -85 19 0 17 8 18 98 18 l97 -1 0 34 0 35 -152
3 c-119 2 -153 0 -154 -10z"/>
<path d="M510 480 c-66 -16 -104 -95 -62 -133 22 -20 84 -34 161 -36 19 -1 21
-3 11 -16 -13 -15 -35 -16 -59 -1 -7 5 -38 9 -68 10 -63 1 -76 -12 -47 -46 29
-32 77 -48 144 -48 103 0 164 39 158 101 -4 43 -42 65 -128 74 -74 7 -82 11
-49 24 15 5 31 5 44 -2 28 -16 135 -16 135 -1 0 24 -40 61 -77 71 -46 13 -116
14 -163 3z"/>
<path d="M787 480 c-7 -3 -12 -18 -12 -35 0 -29 1 -30 50 -30 l50 0 5 -100 5
-100 55 0 55 0 0 90 c0 50 4 95 7 101 4 6 28 10 53 9 45 -2 45 -2 45 31 0 20
-5 34 -12 35 -61 4 -291 3 -301 -1z"/>
<path d="M1127 475 c-2 -5 -3 -49 -2 -97 3 -103 21 -138 83 -156 58 -18 151
-15 192 6 51 25 70 70 70 170 0 45 -3 82 -7 83 -30 4 -103 3 -104 -1 -1 -3 -2
-36 -3 -75 -1 -38 -6 -80 -9 -91 -10 -28 -44 -37 -77 -21 -24 12 -25 17 -28
100 -1 48 -6 87 -10 88 -41 5 -103 2 -105 -6z"/>
<path d="M1528 482 c-15 -3 -17 -20 -15 -135 l2 -132 136 1 c119 1 142 3 182
23 53 26 70 60 63 130 -5 52 -35 87 -87 101 -36 10 -246 19 -281 12z m229 -87
c29 -19 31 -65 4 -89 -12 -11 -41 -20 -75 -22 l-56 -4 0 68 0 69 52 -4 c28 -1
62 -10 75 -18z"/>
<path d="M1957 482 c-15 -3 -17 -19 -17 -135 l0 -132 55 -2 55 -1 1 51 c2 139
1 208 -4 213 -7 7 -65 11 -90 6z"/>
<path d="M2203 480 c-74 -16 -113 -70 -107 -144 8 -88 68 -126 195 -123 129 3
179 43 179 142 0 103 -117 157 -267 125z m147 -106 c19 -50 -18 -95 -74 -88
-58 6 -83 56 -51 101 28 40 109 31 125 -13z"/>
</g>
</svg>
