<svg width="76" height="65" viewBox="0 0 76 65" fill="none" xmlns="http://www.w3.org/2000/svg">
<path d="M38.2233 0.96991C29.0517 0.96991 21.59 8.43162 21.59 17.6031C21.59 26.7747 29.0517 34.2348 38.2233 34.2348C47.3948 34.2348 54.8549 26.7747 54.8549 17.6031C54.8549 8.43162 47.3948 0.96991 38.2233 0.96991ZM38.2233 35.2063C28.5177 35.2063 20.6201 27.3087 20.6201 17.6031C20.6201 7.89761 28.5177 0 38.2233 0C47.9288 0 55.8264 7.89761 55.8264 17.6031C55.8264 27.3087 47.9288 35.2063 38.2233 35.2063Z" fill="#191919"/>
<path d="M38.2229 3.11117C30.232 3.11117 23.7306 9.61262 23.7306 17.6035C23.7306 25.5944 30.232 32.0959 38.2229 32.0959C46.2138 32.0959 52.7153 25.5944 52.7153 17.6035C52.7153 9.61262 46.2138 3.11117 38.2229 3.11117ZM38.2229 33.0658C29.6964 33.0658 22.759 26.13 22.759 17.6035C22.759 9.077 29.6964 2.13965 38.2229 2.13965C46.7494 2.13965 53.6852 9.077 53.6852 17.6035C53.6852 26.13 46.7494 33.0658 38.2229 33.0658Z" fill="#191919"/>
<path d="M38.2239 5.25018C31.412 5.25018 25.8708 10.7914 25.8708 17.6033C25.8708 24.4152 31.412 29.9563 38.2239 29.9563C45.0358 29.9563 50.577 24.4152 50.577 17.6033C50.577 10.7914 45.0358 5.25018 38.2239 5.25018ZM38.2239 30.9263C30.878 30.9263 24.9009 24.9492 24.9009 17.6033C24.9009 10.2574 30.878 4.28027 38.2239 4.28027C45.5698 4.28027 51.5469 10.2574 51.5469 17.6033C51.5469 24.9492 45.5698 30.9263 38.2239 30.9263Z" fill="#191919"/>
<path d="M38.2229 7.38886C32.5916 7.38886 28.0091 11.9714 28.0091 17.6027C28.0091 23.2339 32.5916 27.8165 38.2229 27.8165C43.8542 27.8165 48.4367 23.2339 48.4367 17.6027C48.4367 11.9714 43.8542 7.38886 38.2229 7.38886ZM38.2229 28.7864C32.056 28.7864 27.0392 23.7696 27.0392 17.6027C27.0392 11.4358 32.056 6.41895 38.2229 6.41895C44.3898 6.41895 49.4066 11.4358 49.4066 17.6027C49.4066 23.7696 44.3898 28.7864 38.2229 28.7864Z" fill="#191919"/>
<path d="M38.2245 9.53011C33.7722 9.53011 30.1516 13.1508 30.1516 17.603C30.1516 22.0553 33.7722 25.676 38.2245 25.676C42.6768 25.676 46.2974 22.0553 46.2974 17.603C46.2974 13.1508 42.6768 9.53011 38.2245 9.53011ZM38.2245 26.6475C33.2382 26.6475 29.1801 22.5893 29.1801 17.603C29.1801 12.6152 33.2382 8.55859 38.2245 8.55859C43.2108 8.55859 47.2689 12.6152 47.2689 17.603C47.2689 22.5893 43.2108 26.6475 38.2245 26.6475Z" fill="#191919"/>
<path d="M38.2235 11.6698C34.9519 11.6698 32.2899 14.3318 32.2899 17.6034C32.2899 20.8751 34.9519 23.5371 38.2235 23.5371C41.4952 23.5371 44.1572 20.8751 44.1572 17.6034C44.1572 14.3318 41.4952 11.6698 38.2235 11.6698ZM38.2235 24.507C34.4163 24.507 31.3199 21.4107 31.3199 17.6034C31.3199 13.7962 34.4163 10.6982 38.2235 10.6982C42.0308 10.6982 45.1271 13.7962 45.1271 17.6034C45.1271 21.4107 42.0308 24.507 38.2235 24.507Z" fill="#191919"/>
<path d="M38.2245 13.8088C36.1319 13.8088 34.4301 15.5105 34.4301 17.6032C34.4301 19.6942 36.1319 21.3976 38.2245 21.3976C40.3171 21.3976 42.0189 19.6942 42.0189 17.6032C42.0189 15.5105 40.3171 13.8088 38.2245 13.8088ZM38.2245 22.3675C35.5979 22.3675 33.4602 20.2298 33.4602 17.6032C33.4602 14.9765 35.5979 12.8389 38.2245 12.8389C40.8511 12.8389 42.9888 14.9765 42.9888 17.6032C42.9888 20.2298 40.8511 22.3675 38.2245 22.3675Z" fill="#191919"/>
<path d="M38.2242 15.9484C37.3121 15.9484 36.569 16.6915 36.569 17.6035C36.569 18.5155 37.3121 19.2571 38.2242 19.2571C39.1362 19.2571 39.8793 18.5155 39.8793 17.6035C39.8793 16.6915 39.1362 15.9484 38.2242 15.9484ZM38.2242 20.2286C36.7765 20.2286 35.5991 19.0512 35.5991 17.6035C35.5991 16.1559 36.7765 14.9785 38.2242 14.9785C39.6718 14.9785 40.8492 16.1559 40.8492 17.6035C40.8492 19.0512 39.6718 20.2286 38.2242 20.2286Z" fill="#191919"/>
<path d="M5.60116 53.203C3.88974 53.203 2.63031 52.8524 1.82446 52.1479C1.10708 51.527 0.75 50.6777 0.75 49.6001C0.75 48.524 1.10708 47.6731 1.82446 47.0458C2.63031 46.3477 3.88974 45.9971 5.60116 45.9971C6.60485 45.9971 7.43482 46.1129 8.09108 46.3445C8.74733 46.5729 9.25561 46.8849 9.61591 47.2838C9.97942 47.6828 10.2223 48.1396 10.3429 48.6543H7.28684C6.98123 48.1186 6.41987 47.85 5.60116 47.85C4.89665 47.85 4.38033 48.0527 4.05059 48.4548C3.78841 48.7765 3.65812 49.1593 3.65812 49.6001C3.65812 50.0424 3.78841 50.4236 4.05059 50.7453C4.38033 51.149 4.89665 51.3501 5.60116 51.3501C6.41987 51.3501 6.98123 51.0798 7.28684 50.5394H10.3429C10.2223 51.0589 9.97942 51.5174 9.61591 51.9163C9.25561 52.3152 8.74733 52.6304 8.09108 52.862C7.43482 53.0888 6.60485 53.203 5.60116 53.203Z" fill="#191919"/>
<path d="M20.9482 53.0547H18.2074C18.0787 52.8794 17.9886 52.6558 17.9372 52.3856C17.8937 52.1797 17.8278 51.977 17.7377 51.7744C17.6476 51.5733 17.49 51.406 17.268 51.2725C17.0493 51.1406 16.7228 51.0666 16.2901 51.0538H14.4049V53.0547H11.4968V46.1318H16.2193C17.3517 46.1318 18.2621 46.2155 18.9537 46.3828C19.6486 46.55 20.1536 46.817 20.4721 47.1806C20.789 47.5409 20.9482 48.0138 20.9482 48.596C20.9482 49.0818 20.8388 49.4903 20.6201 49.8249C20.4013 50.1562 20.0539 50.4168 19.5778 50.6098C20.0362 50.7996 20.3338 51.0264 20.4721 51.2918C20.6088 51.5588 20.6925 51.85 20.723 52.1668C20.7568 52.4499 20.8324 52.7459 20.9482 53.0547ZM14.4049 49.3488L16.0649 49.3424C16.5281 49.3424 16.8916 49.323 17.1587 49.2844C17.4241 49.2426 17.6187 49.1847 17.7441 49.1107C17.8728 49.0383 17.9532 48.9595 17.9886 48.8727C18.0272 48.7826 18.0465 48.6909 18.0465 48.596C18.0465 48.5027 18.0272 48.4094 17.9886 48.3194C17.9532 48.2293 17.8728 48.1489 17.7441 48.0749C17.6187 48.0025 17.4241 47.9462 17.1587 47.9076C16.8916 47.8658 16.5281 47.8433 16.0649 47.8433H14.4049V49.3488Z" fill="#191919"/>
<path d="M30.4407 53.0547H22.1024V46.1318H30.0611V47.8433H25.0105V48.9306H29.2762V50.2624H25.0105V51.3433H30.4407V53.0547Z" fill="#191919"/>
<path d="M42.4547 53.0547H39.5079L38.8581 51.9223H34.4895L33.8397 53.0547H30.8929L35.3259 46.1318H38.0217L42.4547 53.0547ZM37.8802 50.2045L36.677 48.107L35.4674 50.2045H37.8802Z" fill="#191919"/>
<path d="M48.4245 53.0547H45.5228V47.8433H42.8077V46.1318H51.1396V47.8433H48.4245V53.0547Z" fill="#191919"/>
<path d="M55.1014 53.0547H52.1932V46.1318H55.1014V53.0547Z" fill="#191919"/>
<path d="M62.5208 53.0547H59.8186L55.939 46.1318H58.8857L61.1697 51.0795L63.4538 46.1318H66.4005L62.5208 53.0547Z" fill="#191919"/>
<path d="M75.5755 53.0547H67.2372V46.1318H75.1959V47.8433H70.1453V48.9306H74.411V50.2624H70.1453V51.3433H75.5755V53.0547Z" fill="#191919"/>
<path d="M15.8381 64.9995C14.902 64.9995 14.1476 64.8982 13.5734 64.6971C13.0024 64.4961 12.5665 64.2194 12.2673 63.8671C11.9665 63.5165 11.7655 63.1112 11.6625 62.6511H14.7508C14.9776 62.9777 15.3395 63.1401 15.8381 63.1401C16.3351 63.1401 16.7003 62.9777 16.9319 62.6511C16.948 62.6174 16.9576 62.5868 16.9576 62.5611C16.9576 62.4758 16.8418 62.4115 16.6102 62.368C16.3818 62.3262 16.0392 62.2941 15.5808 62.2715C15.0049 62.2458 14.4001 62.1847 13.7664 62.085C12.3542 61.8662 11.6497 61.2984 11.6497 60.38C11.6497 60.3028 11.6529 60.2223 11.6625 60.1355C11.7655 59.6771 11.9665 59.2717 12.2673 58.9195C12.5665 58.5688 13.0024 58.2922 13.5734 58.0895C14.1476 57.8884 14.902 57.7871 15.8381 57.7871C16.7726 57.7871 17.5254 57.8884 18.0964 58.0895C18.6706 58.2922 19.1082 58.5688 19.4089 58.9195C19.7081 59.2717 19.9108 59.6771 20.0137 60.1355H16.9319C16.7003 59.8106 16.3351 59.6465 15.8381 59.6465C15.3395 59.6465 14.9776 59.8106 14.7508 60.1355C14.7331 60.1612 14.7251 60.1853 14.7251 60.2063C14.7251 60.2835 14.8344 60.3414 15.0532 60.38C15.2752 60.4186 15.6017 60.4507 16.0311 60.4765C16.459 60.5022 16.9158 60.5456 17.4016 60.6052C17.8857 60.6615 18.3409 60.7596 18.7655 60.9011C19.1902 61.0427 19.5199 61.255 19.7564 61.5381C19.9446 61.7536 20.0395 62.0254 20.0395 62.3552C20.0395 62.4501 20.0298 62.5482 20.0137 62.6511C19.9108 63.1112 19.7081 63.5165 19.4089 63.8671C19.1082 64.2194 18.6706 64.4961 18.0964 64.6971C17.5254 64.8982 16.7726 64.9995 15.8381 64.9995Z" fill="#191919"/>
<path d="M26.3252 64.8516H23.4235V59.6401H20.7084V57.9287H29.0403V59.6401H26.3252V64.8516Z" fill="#191919"/>
<path d="M34.1932 64.9996C32.5027 64.9996 31.314 64.6505 30.6288 63.9508C30.0498 63.3589 29.7603 62.508 29.7603 61.3966V57.9287H32.6619V61.3966C32.6619 61.8775 32.7424 62.2587 32.9064 62.5418C33.1413 62.9407 33.5707 63.1402 34.1932 63.1402C34.8189 63.1402 35.2484 62.9407 35.48 62.5418C35.6424 62.2507 35.7245 61.8695 35.7245 61.3966V57.9287H38.6326V61.4352C38.6326 62.5209 38.3447 63.3589 37.7705 63.9508C37.0756 64.6505 35.8821 64.9996 34.1932 64.9996Z" fill="#191919"/>
<path d="M44.4636 64.8516H39.8312V57.9287H44.4636C46.3584 57.9287 47.7207 58.1925 48.5491 58.7201C49.2182 59.1495 49.5994 59.7334 49.6943 60.4701C49.7362 60.7886 49.7587 61.0942 49.7587 61.3901C49.7587 61.6829 49.7362 61.9885 49.6943 62.3102C49.6557 62.6319 49.548 62.9439 49.3726 63.2431C49.2005 63.5439 48.9255 63.8141 48.5491 64.0538C48.1711 64.2951 47.6516 64.4881 46.9921 64.6328C46.3358 64.7792 45.493 64.8516 44.4636 64.8516ZM44.1869 63.1402C45.6667 63.1402 46.5031 62.767 46.6961 62.0207C46.7476 61.8116 46.7734 61.6009 46.7734 61.3901C46.7734 61.181 46.7444 60.9719 46.6897 60.7661C46.6382 60.557 46.5256 60.3672 46.3551 60.1999C46.183 60.0294 45.9241 59.8943 45.5766 59.7945C45.2324 59.6916 44.7692 59.6401 44.1869 59.6401H42.7393V63.1402H44.1869Z" fill="#191919"/>
<path d="M53.818 64.8516H50.9099V57.9287H53.818V64.8516Z" fill="#191919"/>
<path d="M59.8215 64.9995C58.1101 64.9995 56.8506 64.6489 56.0448 63.9443C55.3274 63.3187 54.9703 62.4678 54.9703 61.3901C54.9703 60.3188 55.3274 59.4696 56.0448 58.8423C56.8506 58.1394 58.1101 57.7871 59.8215 57.7871C61.5329 57.7871 62.7907 58.1394 63.5982 58.8423C64.314 59.4696 64.6727 60.3188 64.6727 61.3901C64.6727 62.4678 64.314 63.3187 63.5982 63.9443C62.7907 64.6489 61.5329 64.9995 59.8215 64.9995ZM59.8215 63.1401C60.5196 63.1401 61.0343 62.9407 61.3656 62.5418C61.6262 62.2168 61.7581 61.8324 61.7581 61.3901C61.7581 60.9494 61.6262 60.5666 61.3656 60.2449C61.0343 59.8427 60.5196 59.6401 59.8215 59.6401C59.117 59.6401 58.6007 59.8427 58.2709 60.2449C58.0087 60.5666 57.8785 60.9494 57.8785 61.3901C57.8785 61.8324 58.0087 62.2168 58.2709 62.5418C58.6007 62.9407 59.117 63.1401 59.8215 63.1401Z" fill="#191919"/>
</svg>
