<svg width="106" height="30" viewBox="0 0 106 30" fill="none" xmlns="http://www.w3.org/2000/svg">
<path fill-rule="evenodd" clip-rule="evenodd" d="M0.5 0H105.798V30H0.5V0ZM1.92857 1.42857V28.5714H104.369V1.42857H1.92857Z" fill="#191919"/>
<path d="M4.02148 3.40234H53.1271V26.6166H4.02148V3.40234Z" fill="#191919"/>
<path d="M10.2394 18.9296H11.1539L14.2526 11.1279H13.2156L11.9119 14.4157L10.6967 17.5143L9.47053 14.4157L8.17775 11.1279H7.12988L10.2394 18.9296Z" fill="#FDFBF5"/>
<path d="M16.4229 18.9296H17.4041V11.1279H16.4229V18.9296Z" fill="#FDFBF5"/>
<path d="M23.1218 19.0739C24.8269 19.0739 25.9305 18.2384 25.9305 16.879C25.9305 15.7304 25.1617 15.0406 23.1667 14.5492C21.6507 14.1818 21.1485 13.7804 21.1485 13.134C21.1485 12.3868 21.8181 11.9187 22.9326 11.9187C24.0797 11.9187 24.7928 12.4984 24.816 13.4347H25.7848C25.774 11.9187 24.6812 10.9824 22.9326 10.9824C21.226 10.9824 20.1456 11.8195 20.1456 13.134C20.1456 14.3384 21.0043 15.0065 22.9202 15.4638C24.3246 15.797 24.9152 16.1877 24.9152 16.9131C24.9152 17.682 24.2254 18.1377 23.1218 18.1377C21.9065 18.1377 21.0601 17.5362 21.0369 16.5333H20.0557C20.0681 18.0602 21.2601 19.0739 23.1218 19.0739Z" fill="#FDFBF5"/>
<path d="M28.5798 18.9296H29.561V11.1279H28.5798V18.9296Z" fill="#FDFBF5"/>
<path d="M36.2253 19.0739C38.6001 19.0739 40.2711 17.4029 40.2711 15.0282C40.2711 12.655 38.6001 10.9824 36.2253 10.9824C33.8506 10.9824 32.1904 12.655 32.1904 15.0282C32.1904 17.4029 33.8506 19.0739 36.2253 19.0739ZM33.1933 15.0282C33.1933 13.2115 34.4303 11.9636 36.2253 11.9636C38.0204 11.9636 39.2573 13.2115 39.2573 15.0282C39.2573 16.8449 38.0204 18.0943 36.2253 18.0943C34.4303 18.0943 33.1933 16.8449 33.1933 15.0282Z" fill="#FDFBF5"/>
<path d="M42.8867 18.9296H43.8571V12.8222L48.171 18.9296H49.084V11.1279H48.1261V17.2353L43.8121 11.1279H42.8867V18.9296Z" fill="#FDFBF5"/>
<path d="M60.3072 18.8601C62.2463 18.8601 63.3934 17.9455 63.3934 16.4078C63.3934 15.1151 62.5579 14.3571 60.6637 13.9339C59.6608 13.7107 59.2934 13.4658 59.2934 13.0643C59.2934 12.6845 59.6267 12.4504 60.1506 12.4504C60.7753 12.4504 61.1318 12.7744 61.1318 13.365H63.2492C63.2492 11.7606 62.0231 10.7236 60.1056 10.7236C58.2672 10.7236 57.131 11.6382 57.131 13.1092C57.131 14.4237 57.9882 15.2375 59.7491 15.5723C60.6962 15.7615 61.1535 16.0513 61.1535 16.4978C61.1535 16.8868 60.8202 17.11 60.2731 17.11C59.6267 17.11 59.2484 16.7644 59.2484 16.1629H57.0752C57.0752 17.8463 58.2781 18.8601 60.3072 18.8601Z" fill="#191919"/>
<path d="M66.4926 18.6923H68.7324V12.974H71.1072V10.8906H64.1178V12.974H66.4926V18.6923Z" fill="#191919"/>
<path d="M75.5971 18.8597C77.7037 18.8597 79.0089 17.5778 79.0089 15.482V10.8906H76.7674V15.3379C76.7674 16.2633 76.3783 16.7531 75.5971 16.7531C74.8174 16.7531 74.4268 16.2633 74.4268 15.3379V10.8906H72.176V15.482C72.176 17.5778 73.4905 18.8597 75.5971 18.8597Z" fill="#191919"/>
<path d="M80.6014 18.6923H83.9125C86.4314 18.6923 88.1024 17.1437 88.1024 14.7907C88.1024 12.45 86.4314 10.8906 83.9125 10.8906H80.6014V18.6923ZM82.8522 16.6756V12.9073H83.8442C85.0378 12.9073 85.8067 13.6436 85.8067 14.7907C85.8067 15.9393 85.0378 16.6756 83.8442 16.6756H82.8522Z" fill="#191919"/>
<path d="M89.3055 18.6923H91.5563V10.8906H89.3055V18.6923Z" fill="#191919"/>
<path d="M97.0073 18.8601C99.4921 18.8601 101.253 17.1767 101.253 14.7911C101.253 12.407 99.4921 10.7236 97.0073 10.7236C94.5225 10.7236 92.76 12.407 92.76 14.7911C92.76 17.1767 94.5225 18.8601 97.0073 18.8601ZM95.0449 14.7911C95.0449 13.6208 95.8587 12.8085 97.0073 12.8085C98.1668 12.8085 98.9682 13.6208 98.9682 14.7911C98.9682 15.9614 98.1668 16.7752 97.0073 16.7752C95.8587 16.7752 95.0449 15.9614 95.0449 14.7911Z" fill="#191919"/>
</svg>
