<svg width="76" height="65" viewBox="0 0 76 65" fill="none" xmlns="http://www.w3.org/2000/svg">
<path d="M2.57471 64.9156H0.75V57.7471H2.57471V64.9156Z" fill="#191919"/>
<path d="M12.9772 64.9156H11.3672L8.07043 60.5071V64.9156H6.36072V57.7471H7.97076L11.2752 62.1708V57.7471H12.9772V64.9156Z" fill="#191919"/>
<path d="M29.3634 64.9154H27.7533L27.7456 60.2617L26.0283 64.2024H24.8399L23.1225 60.2617V64.9154H21.4895V57.7393H23.4905L25.4303 62.0097L27.3776 57.7393H29.3634V64.9154Z" fill="#191919"/>
<path d="M36.5629 57.6855C37.6708 57.6855 38.5946 58.0344 39.3307 58.7282C40.0705 59.4183 40.4423 60.2827 40.4423 61.3196C40.4423 62.3681 40.0705 63.244 39.3307 63.9494C38.5889 64.6509 37.6631 64.9997 36.5553 64.9997C35.4512 64.9997 34.5312 64.6509 33.7952 63.9494C33.0592 63.2498 32.6912 62.3738 32.6912 61.3196C32.6912 60.2769 33.0592 59.4106 33.7952 58.7206C34.5312 58.0306 35.4531 57.6855 36.5629 57.6855ZM36.5783 59.2112C36.0205 59.2112 35.5432 59.4163 35.1446 59.8246C34.7497 60.229 34.5542 60.7331 34.5542 61.335C34.5542 61.933 34.7535 62.439 35.1522 62.853C35.5509 63.267 36.0262 63.474 36.5783 63.474C37.1303 63.474 37.5979 63.267 37.9813 62.853C38.3685 62.439 38.564 61.933 38.564 61.335C38.564 60.7331 38.3685 60.229 37.9813 59.8246C37.5979 59.4163 37.1303 59.2112 36.5783 59.2112Z" fill="#191919"/>
<path d="M49.2365 59.2113H47.0745V64.9154H45.2498V59.2113H43.1107V57.7393H49.2365V59.2113Z" fill="#191919"/>
<path d="M54.1876 64.9156H52.3629V57.7471H54.1876V64.9156Z" fill="#191919"/>
<path d="M61.3758 57.686C62.4836 57.686 63.4075 58.0349 64.1435 58.7287C64.8834 59.4187 65.2552 60.2832 65.2552 61.3201C65.2552 62.3686 64.8834 63.2445 64.1435 63.9499C63.4018 64.6514 62.476 65.0002 61.3681 65.0002C60.2641 65.0002 59.3441 64.6514 58.6081 63.9499C57.872 63.2503 57.504 62.3743 57.504 61.3201C57.504 60.2774 57.872 59.4111 58.6081 58.7211C59.3441 58.031 60.266 57.686 61.3758 57.686ZM61.3911 59.2117C60.8334 59.2117 60.3561 59.4168 59.9574 59.8251C59.5626 60.2295 59.3671 60.7336 59.3671 61.3355C59.3671 61.9335 59.5664 62.4395 59.9651 62.8535C60.3638 63.2675 60.8391 63.4745 61.3911 63.4745C61.9431 63.4745 62.4108 63.2675 62.7942 62.8535C63.1813 62.4395 63.3768 61.9335 63.3768 61.3355C63.3768 60.7336 63.1813 60.2295 62.7942 59.8251C62.4108 59.4168 61.9431 59.2117 61.3911 59.2117Z" fill="#191919"/>
<path d="M75.1847 64.9156H73.5747L70.2779 60.5071V64.9156H68.5682V57.7471H70.1783L73.4827 62.1708V57.7471H75.1847V64.9156Z" fill="#191919"/>
<path d="M53.3724 45.5908H15.2107V7.39648H53.3724V45.5908ZM15.8202 44.9813H52.7629V8.006H15.8202V44.9813Z" fill="#191919"/>
<path d="M56.8211 41.7305H18.6613V3.53613H56.8211V41.7305ZM19.2689 41.1209H56.2116V4.14565H19.2689V41.1209Z" fill="#191919"/>
<path d="M60.474 38.1962H22.3142V0H60.474V38.1962ZM22.9237 37.5867H59.8664V0.609515H22.9237V37.5867Z" fill="#191919"/>
<path d="M27.4493 24.873H35.8886V33.3142H27.4493V24.873Z" fill="#191919"/>
</svg>
