<svg width="66" height="65" viewBox="0 0 66 65" fill="none" xmlns="http://www.w3.org/2000/svg">
<path d="M32.9996 65C24.3226 65 16.1522 61.6221 10.0214 55.4786C3.8771 49.3469 0.5 41.1765 0.5 32.4996C0.5 23.8226 3.8771 15.6522 10.0214 9.52143C16.1522 3.3771 24.3226 0 32.9996 0C41.6765 0 49.847 3.3771 55.9777 9.52143C62.1221 15.6649 65.4992 23.8226 65.4992 32.4996C65.4992 41.1765 62.1221 49.3469 55.9777 55.4786C49.847 61.6221 41.6765 65 32.9996 65ZM32.9996 1.94816C24.8419 1.94816 17.1653 5.13044 11.3979 10.8978C5.63044 16.6653 2.44816 24.3427 2.44816 32.4996C2.44816 40.6573 5.63044 48.3339 11.3979 54.1013C17.1653 59.8687 24.8419 63.051 32.9996 63.051C41.1573 63.051 48.8339 59.8687 54.6013 54.1013C60.3687 48.3339 63.551 40.6573 63.551 32.4996C63.551 24.3427 60.3687 16.6653 54.6013 10.8978C48.8339 5.13044 41.1573 1.94816 32.9996 1.94816Z" fill="#191919"/>
<path d="M39.6466 18.4153C39.5154 18.2933 39.3104 18.3009 39.1884 18.4322L36.5558 21.274L36.3754 21.108L39.0088 18.2662C39.1308 18.1349 39.1232 17.9299 38.9919 17.808C38.8606 17.686 38.6556 17.6936 38.5328 17.8249L35.9002 20.6675L35.7207 20.5007L38.3541 17.6589C38.4752 17.5276 38.4676 17.3226 38.3363 17.2006C38.2059 17.0795 38 17.0871 37.8781 17.2184L35.2455 20.0602L35.0659 19.8933L37.6985 17.0524C37.8205 16.9203 37.8128 16.7153 37.6815 16.5933C37.5503 16.4722 37.3453 16.4798 37.2233 16.6111L34.5907 19.4529L34.589 19.452L34.5069 19.5376C34.434 19.6172 34.368 19.6968 34.3087 19.7781L34.3061 19.7807C34.0834 20.0831 33.9563 20.3982 33.9572 20.7658C33.958 21.1529 34.0935 21.5179 34.3409 21.8186C34.1749 21.9948 33.4337 22.7173 32.5409 23.5838C31.4737 22.4497 30.5309 21.4426 30.3412 21.2215C30.6173 20.9157 30.78 20.5345 30.7995 20.1254C30.8181 19.7349 30.6987 19.3953 30.4784 19.065H30.4793L30.475 19.0607C30.4166 18.9718 30.3505 18.8845 30.2777 18.7964L30.1947 18.7024L30.193 18.7033L29.8703 18.3662C28.0915 16.8127 27.2072 16.678 26.6897 17.1219C26.0832 17.6411 25.8774 18.544 27.2377 20.6277L27.5367 21.0267L27.5375 21.0275L27.5697 21.0665C27.934 21.5078 28.2846 21.7576 28.7895 21.8212C29.1732 21.8686 29.5526 21.7864 29.888 21.5908C30.0769 21.8203 30.9358 22.946 31.8955 24.2089C30.5758 25.4871 29.1494 26.8644 28.7793 27.232C28.5193 27.4802 28.3761 27.6487 28.3761 27.6487C28.1237 27.9206 28.1415 28.3475 28.4159 28.6016C28.6904 28.8566 29.1173 28.8413 29.3697 28.5694C29.3697 28.5694 29.5484 28.3806 29.7051 28.1967L29.7059 28.1976C29.9363 27.9325 31.2221 26.39 32.4418 24.9281C33.5853 26.4358 34.7203 27.9342 34.9372 28.2069V28.2052C35.0947 28.4077 35.2743 28.6169 35.2743 28.6169C35.5284 28.9184 35.9799 28.9548 36.2831 28.699C36.5863 28.4424 36.6261 27.9909 36.372 27.6911C36.372 27.6911 36.2289 27.5047 35.9655 27.2294C35.6165 26.8491 34.3375 25.493 33.083 24.1607C33.9004 23.1849 34.5857 22.37 34.7517 22.1871C35.0583 22.3861 35.4124 22.4802 35.7757 22.4514C36.2543 22.4141 36.5948 22.1947 36.9573 21.7949L36.9895 21.7585L36.9912 21.7576L39.6644 18.8727C39.7856 18.7414 39.7779 18.5364 39.6466 18.4153Z" fill="#191919"/>
<path d="M23.337 32.8086C23.996 32.8086 24.5745 32.9729 25.0717 33.2999L24.6516 34.174C24.4212 34.0385 24.1739 33.9284 23.9096 33.842C23.6453 33.7564 23.4226 33.7132 23.2422 33.7132C22.9186 33.7132 22.7577 33.8208 22.7577 34.0351C22.7577 34.1732 22.8364 34.2841 22.9948 34.3671C23.1549 34.451 23.3489 34.523 23.5776 34.584C23.808 34.6449 24.0367 34.7186 24.2654 34.8042C24.4932 34.8906 24.6863 35.0303 24.8447 35.2243C25.0048 35.4166 25.0853 35.6597 25.0853 35.9528C25.0853 36.3754 24.9193 36.7049 24.5872 36.9421C24.2569 37.1793 23.8359 37.2978 23.3235 37.2978C22.9593 37.2978 22.5993 37.236 22.2427 37.1115C21.8852 36.9853 21.5761 36.8125 21.3143 36.5931L21.748 35.7325C21.9691 35.9248 22.23 36.0832 22.5307 36.2069C22.8331 36.3314 23.1016 36.3932 23.337 36.3932C23.5174 36.3932 23.6572 36.361 23.7572 36.295C23.8588 36.2297 23.9096 36.1349 23.9096 36.0104C23.9096 35.8884 23.852 35.7867 23.7368 35.7054C23.6216 35.6224 23.4776 35.5614 23.3065 35.5225C23.1346 35.4818 22.9482 35.4293 22.7475 35.3632C22.5459 35.2955 22.3587 35.2226 22.1851 35.143C22.0131 35.0617 21.87 34.9346 21.7548 34.7601C21.6396 34.5865 21.582 34.379 21.582 34.1367C21.582 33.7327 21.7421 33.4108 22.0631 33.1711C22.3833 32.9297 22.8085 32.8086 23.337 32.8086Z" fill="#191919"/>
<path d="M30.0954 32.8594V35.4106C30.0954 35.9934 29.9142 36.4567 29.5533 36.7997C29.1942 37.1411 28.7063 37.3113 28.0897 37.3113C27.4679 37.3113 26.975 37.1411 26.6091 36.7997C26.2431 36.4567 26.0602 35.9934 26.0602 35.4106V32.8594H27.1783V35.4106C27.1783 35.7045 27.263 35.9383 27.4324 36.112C27.6018 36.2864 27.8228 36.3728 28.0964 36.3728C28.3649 36.3728 28.5792 36.2873 28.7402 36.1153C28.9028 35.9442 28.9841 35.7088 28.9841 35.4106V32.8594H30.0954Z" fill="#191919"/>
<path d="M31.3407 32.8594H33.2584C33.8208 32.8594 34.2562 32.9932 34.5662 33.2592C34.8753 33.526 35.0303 33.9046 35.0303 34.3942C35.0303 34.9092 34.8753 35.309 34.5662 35.5936C34.2562 35.8782 33.8208 36.0205 33.2584 36.0205H32.4588V37.2605H31.3407V32.8594ZM32.4588 33.7403V35.143H33.2008C33.4489 35.143 33.6395 35.082 33.7734 34.96C33.9089 34.838 33.9766 34.6618 33.9766 34.4315C33.9766 34.2061 33.9089 34.0342 33.7734 33.9165C33.6395 33.7996 33.4489 33.7403 33.2008 33.7403H32.4588Z" fill="#191919"/>
<path d="M39.501 33.7403H37.1734V34.6144H39.274V35.4919H37.1734V36.3796H39.5688V37.2605H36.0553V32.8594H39.501V33.7403Z" fill="#191919"/>
<path d="M43.3871 37.2605L42.7332 36.0205H41.8523V37.2605H40.7343V32.8594H42.7027C43.2855 32.8594 43.7361 32.9932 44.0546 33.2592C44.3731 33.526 44.5323 33.9046 44.5323 34.3942C44.5323 35.0718 44.2655 35.5428 43.7327 35.807L44.6577 37.2605H43.3871ZM41.8523 35.143H42.7027C42.9441 35.143 43.1313 35.082 43.2652 34.96C43.4007 34.838 43.4685 34.6618 43.4685 34.4315C43.4685 34.2061 43.4007 34.0342 43.2652 33.9165C43.1313 33.7996 42.9441 33.7403 42.7027 33.7403H41.8523V35.143Z" fill="#191919"/>
<path d="M26.6987 41.0586H24.554V42.0751H26.5293V42.956H24.554V44.5789H23.4359V40.1777H26.6987V41.0586Z" fill="#191919"/>
<path d="M29.7603 40.1406C30.4447 40.1406 31.0122 40.3532 31.4645 40.7776C31.9185 41.2028 32.1455 41.7347 32.1455 42.3734C32.1455 43.0154 31.9168 43.5516 31.4611 43.9827C31.0071 44.4147 30.4396 44.6299 29.7603 44.6299C29.0802 44.6299 28.5143 44.4156 28.0629 43.9861C27.6106 43.555 27.3853 43.0171 27.3853 42.3734C27.3853 41.7322 27.6106 41.2003 28.0629 40.7776C28.5143 40.3532 29.0802 40.1406 29.7603 40.1406ZM29.7739 41.0757C29.43 41.0757 29.1369 41.2011 28.893 41.4518C28.649 41.7008 28.527 42.01 28.527 42.3802C28.527 42.7486 28.649 43.0595 28.893 43.3119C29.1386 43.5652 29.4317 43.6914 29.7705 43.6914C30.111 43.6914 30.4007 43.5652 30.6378 43.3119C30.875 43.0595 30.9936 42.7486 30.9936 42.3802C30.9936 42.01 30.875 41.7008 30.6378 41.4518C30.4007 41.2011 30.1127 41.0757 29.7739 41.0757Z" fill="#191919"/>
<path d="M35.2601 40.1406C35.9445 40.1406 36.512 40.3532 36.9643 40.7776C37.4183 41.2028 37.6453 41.7347 37.6453 42.3734C37.6453 43.0154 37.4166 43.5516 36.9609 43.9827C36.5069 44.4147 35.9394 44.6299 35.2601 44.6299C34.5799 44.6299 34.0141 44.4156 33.5626 43.9861C33.1103 43.555 32.885 43.0171 32.885 42.3734C32.885 41.7322 33.1103 41.2003 33.5626 40.7776C34.0141 40.3532 34.5799 40.1406 35.2601 40.1406ZM35.2736 41.0757C34.9297 41.0757 34.6367 41.2011 34.3927 41.4518C34.1488 41.7008 34.0268 42.01 34.0268 42.3802C34.0268 42.7486 34.1488 43.0595 34.3927 43.3119C34.6384 43.5652 34.9314 43.6914 35.2702 43.6914C35.6107 43.6914 35.9004 43.5652 36.1376 43.3119C36.3748 43.0595 36.4933 42.7486 36.4933 42.3802C36.4933 42.01 36.3748 41.7008 36.1376 41.4518C35.9004 41.2011 35.6124 41.0757 35.2736 41.0757Z" fill="#191919"/>
<path d="M38.6747 40.1777H40.5686C41.2598 40.1777 41.8222 40.381 42.2559 40.7876C42.6896 41.1942 42.9064 41.7244 42.9064 42.3766C42.9064 43.0271 42.6862 43.5574 42.2457 43.9656C41.8053 44.3748 41.231 44.5789 40.5246 44.5789H38.6747V40.1777ZM39.7928 41.0688V43.6844H40.5924C40.9354 43.6844 41.2166 43.565 41.436 43.3253C41.6571 43.0839 41.768 42.7713 41.768 42.3868C41.768 42.0005 41.6528 41.6846 41.4224 41.4381C41.192 41.1925 40.8981 41.0688 40.5415 41.0688H39.7928Z" fill="#191919"/>
<path d="M27.1214 48.3447C27.3586 48.3447 27.5703 48.4074 27.7584 48.5311L27.633 48.8021C27.4475 48.6895 27.2688 48.6327 27.0977 48.6327C27.007 48.6327 26.935 48.6497 26.8808 48.6835C26.8283 48.7157 26.8029 48.7615 26.8029 48.8224C26.8029 48.8834 26.8266 48.936 26.8741 48.9783C26.9232 49.019 26.9842 49.0495 27.057 49.0698C27.129 49.0901 27.2078 49.1164 27.2942 49.1477C27.3797 49.1774 27.4585 49.2087 27.5314 49.2426C27.6034 49.2765 27.6635 49.3298 27.7109 49.4018C27.7584 49.4747 27.7821 49.5611 27.7821 49.6627C27.7821 49.8236 27.7177 49.9507 27.589 50.0456C27.4619 50.1404 27.2984 50.1879 27.0977 50.1879C26.9571 50.1879 26.8215 50.1624 26.6911 50.1099C26.5624 50.0583 26.4489 49.988 26.3523 49.8999L26.4844 49.6322C26.5768 49.7186 26.6776 49.7847 26.786 49.8321C26.8961 49.8778 27.0011 49.8999 27.1011 49.8999C27.2095 49.8999 27.2925 49.8812 27.3518 49.8423C27.4128 49.8016 27.4433 49.7474 27.4433 49.6796C27.4433 49.617 27.4179 49.5636 27.3687 49.5204C27.3213 49.478 27.2603 49.4476 27.1858 49.4289C27.1129 49.4086 27.0342 49.384 26.9486 49.3544C26.8647 49.3256 26.786 49.2951 26.7114 49.2629C26.6386 49.2316 26.5776 49.1807 26.5285 49.1104C26.481 49.0384 26.4573 48.9512 26.4573 48.8496C26.4573 48.6962 26.5183 48.5743 26.6403 48.4836C26.7623 48.3913 26.9223 48.3447 27.1214 48.3447Z" fill="#191919"/>
<path d="M29.6261 48.6323H28.63V49.1236H29.5211V49.398H28.63V49.9029H29.6566V50.1773H28.3251V48.3545H29.6261V48.6323Z" fill="#191919"/>
<path d="M30.5179 50.1778H30.213V48.355H30.5179V50.1778Z" fill="#191919"/>
<path d="M32.4261 48.6328H31.8467V50.1778H31.5418V48.6328H30.9658V48.355H32.4261V48.6328Z" fill="#191919"/>
<path d="M34.1813 50.1773H33.873V48.6289H33.5172V48.3545H34.1813V50.1773Z" fill="#191919"/>
<path d="M35.3766 50.1912C35.1775 50.1912 34.9971 50.1455 34.8345 50.0523L34.9531 49.8219C35.07 49.899 35.2046 49.9371 35.3563 49.9371C35.5274 49.9371 35.6561 49.8787 35.7425 49.761C35.828 49.6415 35.8687 49.4797 35.8645 49.2765C35.7671 49.4484 35.601 49.534 35.3664 49.534C35.1835 49.534 35.0395 49.4823 34.9361 49.3781C34.8319 49.2722 34.7803 49.1308 34.7803 48.9546C34.7803 48.7674 34.8379 48.6192 34.9531 48.5107C35.07 48.4006 35.2258 48.3447 35.4206 48.3447C35.651 48.3447 35.8314 48.4227 35.9627 48.5785C36.0957 48.7344 36.1626 48.9512 36.1626 49.229C36.1626 49.5204 36.0915 49.7542 35.9492 49.9304C35.8069 50.1048 35.6154 50.1912 35.3766 50.1912ZM35.424 49.2934C35.5434 49.2934 35.6383 49.2612 35.7086 49.1951C35.7806 49.1274 35.8153 49.0452 35.8136 48.9478C35.8153 48.8597 35.784 48.7818 35.7188 48.714C35.6527 48.6446 35.5595 48.609 35.4376 48.609C35.3241 48.609 35.2343 48.6395 35.1665 48.7005C35.1004 48.7615 35.0683 48.8479 35.0683 48.958C35.0683 49.0622 35.0996 49.1443 35.1631 49.2053C35.2258 49.2646 35.3131 49.2934 35.424 49.2934Z" fill="#191919"/>
<path d="M37.1599 50.1912C36.9609 50.1912 36.7804 50.1455 36.6178 50.0523L36.7364 49.8219C36.8533 49.899 36.988 49.9371 37.1396 49.9371C37.3107 49.9371 37.4394 49.8787 37.5258 49.761C37.6114 49.6415 37.652 49.4797 37.6478 49.2765C37.5504 49.4484 37.3844 49.534 37.1497 49.534C36.9668 49.534 36.8228 49.4823 36.7195 49.3781C36.6153 49.2722 36.5636 49.1308 36.5636 48.9546C36.5636 48.7674 36.6212 48.6192 36.7364 48.5107C36.8533 48.4006 37.0091 48.3447 37.204 48.3447C37.4343 48.3447 37.6148 48.4227 37.746 48.5785C37.879 48.7344 37.9459 48.9512 37.9459 49.229C37.9459 49.5204 37.8748 49.7542 37.7325 49.9304C37.5902 50.1048 37.3988 50.1912 37.1599 50.1912ZM37.2073 49.2934C37.3268 49.2934 37.4216 49.2612 37.4919 49.1951C37.5639 49.1274 37.5987 49.0452 37.597 48.9478C37.5987 48.8597 37.5673 48.7818 37.5021 48.714C37.436 48.6446 37.3429 48.609 37.2209 48.609C37.1074 48.609 37.0176 48.6395 36.9498 48.7005C36.8838 48.7615 36.8516 48.8479 36.8516 48.958C36.8516 49.0622 36.8829 49.1443 36.9465 49.2053C37.0091 49.2646 37.0964 49.2934 37.2073 49.2934Z" fill="#191919"/>
<path d="M38.9867 48.3447C39.1603 48.3447 39.3001 48.3871 39.4068 48.4701C39.5127 48.5514 39.5661 48.6624 39.5661 48.8021C39.5661 48.9605 39.4551 49.1596 39.234 49.3984L38.7597 49.9033H39.6508V50.1777H38.3565V49.9541L39.0274 49.2324C39.1739 49.0816 39.2476 48.9529 39.2476 48.8462C39.2476 48.7742 39.2205 48.7174 39.1663 48.6768C39.1121 48.6344 39.0375 48.6124 38.9427 48.6124C38.7775 48.6124 38.6115 48.6886 38.4446 48.8394L38.3226 48.6022C38.5369 48.4311 38.758 48.3447 38.9867 48.3447Z" fill="#191919"/>
</svg>
