<svg width="80" height="105" viewBox="0 0 80 105" fill="none" xmlns="http://www.w3.org/2000/svg">
<path d="M79.9782 52.9564C79.9809 52.9482 79.9809 52.9401 79.9782 52.9319C79.9918 52.8883 79.9973 52.8475 80 52.8012C79.9973 52.7576 79.9918 52.7168 79.9782 52.6732C79.9809 52.665 79.9809 52.6568 79.9782 52.6487C79.9646 52.6078 79.9455 52.5697 79.921 52.5343L40.3622 0.755966L40.3486 0.742349C40.3322 0.723286 40.3132 0.704223 40.2941 0.690606C40.2097 0.622523 40.1171 0.589844 40.0109 0.589844C39.9047 0.589844 39.8094 0.622523 39.7277 0.690606C39.7086 0.704223 39.6895 0.723286 39.6732 0.742349L39.6569 0.755966L0.0925926 52.5261C0.0653591 52.5615 0.0462961 52.5997 0.0326797 52.6405C0.0326797 52.6487 0.0326797 52.6568 0.0326797 52.665C0.0217865 52.7059 0.0136166 52.7494 0.0136166 52.793H0C0 52.8366 0.00816994 52.8802 0.0190632 52.9237C0.0190632 52.9319 0.0190632 52.9401 0.0190632 52.9482C0.0326796 52.9891 0.0517426 53.0272 0.078976 53.0599L39.6269 104.83C39.6324 104.835 39.6351 104.841 39.6432 104.846L39.6841 104.89L39.7141 104.914C39.7304 104.928 39.7467 104.939 39.7658 104.947L39.7957 104.963L39.8611 104.988H39.8883C39.9537 105.004 40.0191 105.004 40.0817 104.988H40.1089L40.1743 104.963L40.2043 104.947C40.2233 104.939 40.2397 104.928 40.256 104.914L40.2859 104.89L40.3295 104.846C40.335 104.841 40.3404 104.835 40.3459 104.83L79.8938 53.0599C79.9265 53.0299 79.9564 52.9973 79.9782 52.9564ZM40.4521 41.8834H70.6454L74.9946 47.5724H40.4521V41.8834ZM40.4521 40.9766V35.2876H65.6046L69.951 40.9766H40.4521ZM40.4521 34.3807V28.6863H60.5637L64.9128 34.378L40.4521 34.3807ZM40.4521 27.7794V22.0931H55.5174L59.8693 27.7794H40.4521ZM40.4521 21.1835V15.4945H50.4793L54.8257 21.1863L40.4521 21.1835ZM40.4521 14.5849V8.89594H45.4357L49.7903 14.5877L40.4521 14.5849ZM40.4521 7.98636V2.37089L44.744 7.98908L40.4521 7.98636ZM39.5479 52.3491H1.3671L39.5479 2.37089V52.3491ZM40.4521 53.256H78.6438L40.4521 103.234V53.256ZM40.4521 52.3491V48.4793H75.6863L78.6438 52.3491H40.4521Z" fill="#111111"/>
</svg>
