<svg width="81" height="84" viewBox="0 0 81 84" fill="none" xmlns="http://www.w3.org/2000/svg">
<path d="M80.5 43.109C80.5 65.1659 62.5558 83.1101 40.5011 83.1101C18.4463 83.1101 0.5 65.1659 0.5 43.109C0.5 42.9918 0.541236 42.8919 0.623708 42.8073C0.70835 42.7248 0.808185 42.6836 0.925382 42.6836H80.0724C80.1896 42.6836 80.2916 42.7248 80.3741 42.8073C80.4588 42.8919 80.5 42.9918 80.5 43.109ZM0.5 40.0011C0.5 17.9442 18.4442 0 40.4989 0C62.5537 0 80.5 17.9442 80.5 40.0011C80.5 40.1183 80.4588 40.2181 80.3741 40.3028C80.2916 40.3852 80.1896 40.4265 80.0724 40.4265H0.925382C0.808185 40.4265 0.70835 40.3852 0.623708 40.3028C0.541236 40.2181 0.5 40.1183 0.5 40.0011ZM77.2076 39.5735H79.6449C79.5993 35.0397 78.7876 30.647 77.2076 26.3954V39.5735ZM69.9566 39.5735H76.3547V24.2923C74.7356 20.6137 72.6044 17.2605 69.9566 14.2373V39.5735ZM62.7034 39.5735H69.1037V13.2975C67.1677 11.2249 65.0365 9.38444 62.7034 7.7719V39.5735ZM55.4524 39.5735H61.8505V7.19677C59.8234 5.87287 57.69 4.74648 55.4524 3.81758V39.5735ZM48.2014 39.5735H54.5995V3.47468C52.5203 2.66949 50.3869 2.04878 48.2014 1.61254V39.5735ZM40.9482 39.5735H47.3463V1.44977C45.2302 1.07648 43.0968 0.878978 40.9482 0.859445V39.5735ZM1.35293 39.5735H40.0714V0.852934C18.8261 1.08733 1.58299 18.3261 1.35293 39.5735Z" fill="#111111"/>
</svg>
